<svg height="32px" viewBox="-136 0 496 496.01085" width="32px" xmlns="http://www.w3.org/2000/svg"><path d="m148.964844 313.039062-12.960938-6.71875v-250.320312c0-13.253906-10.742187-24-24-24-13.253906 0-24 10.746094-24 24v250.320312l-12.957031 6.71875c-32.6875 17.027344-49.511719 54.179688-40.746094 89.976563s40.851563 60.976563 77.703125 60.976563c36.855469 0 68.941406-25.179688 77.707032-60.976563 8.765624-35.796875-8.058594-72.949219-40.746094-89.976563zm-36.960938 118.960938c-26.507812 0-48-21.492188-48-48s21.492188-48 48-48c26.511719 0 48 21.492188 48 48s-21.488281 48-48 48zm0 0" fill="#57a4ff"/><g fill="#004fac"><path d="m168.003906 287.015625v-231.015625c-.039062-30.910156-25.085937-55.9609375-56-56-30.910156.0390625-55.957031 25.089844-56 56v231.015625c-43.898437 25.347656-65.300781 77.019531-52.183594 125.984375 13.121094 48.964844 57.492188 83.011719 108.183594 83.011719s95.066406-34.046875 108.183594-83.011719c13.121094-48.964844-8.28125-100.636719-52.183594-125.984375zm-56 192.984375c-44.21875-.015625-82.707031-30.234375-93.214844-73.1875-10.507812-42.957031 9.683594-87.53125 48.90625-107.957031 2.648438-1.375 4.308594-4.109375 4.308594-7.09375v-235.761719c.027344-22.082031 17.921875-39.972656 40-40 22.078125.039062 39.960938 17.925781 40 40v235.761719c.003906 2.984375 1.664063 5.71875 4.3125 7.09375 39.222656 20.425781 59.414063 65 48.90625 107.957031-10.507812 42.953125-48.996094 73.171875-93.21875 73.1875zm0 0"/><path d="m152.628906 305.960938-8.625-4.472657v-245.488281c0-17.671875-14.324218-32-32-32-17.671875 0-32 14.328125-32 32v245.488281l-8.621094 4.472657c-35.96875 18.714843-54.492187 59.585937-44.855468 98.972656 9.632812 39.382812 44.933594 67.089844 85.476562 67.089844 40.546875 0 75.847656-27.707032 85.480469-67.089844 9.636719-39.386719-8.886719-80.257813-44.855469-98.972656zm-40.625 150.039062c-33.148437-.027344-61.992187-22.683594-69.875-54.882812-7.878906-32.195313 7.242188-65.613282 36.628906-80.949219l12.9375-6.71875c2.648438-1.378907 4.3125-4.117188 4.308594-7.105469v-250.34375c0-8.835938 7.164063-16 16-16 8.824219.035156 15.964844 7.179688 16 16v16h-8c-4.417968 0-8 3.582031-8 8s3.582032 8 8 8h8v32h-8c-4.417968 0-8 3.582031-8 8s3.582032 8 8 8h8v32h-8c-4.417968 0-8 3.582031-8 8s3.582032 8 8 8h8v122.34375c0 2.988281 1.664063 5.726562 4.3125 7.105469l12.9375 6.71875c29.386719 15.335937 44.507813 48.753906 36.625 80.949219-7.878906 32.199218-36.726562 54.855468-69.875 54.882812zm0 0"/><path d="m120.003906 328.640625v-64.640625c0-4.417969-3.582031-8-8-8-4.417968 0-8 3.582031-8 8v64.640625c-29.070312 4.195313-49.957031 30.140625-47.855468 59.433594 2.105468 29.296875 26.484374 51.992187 55.855468 51.992187 29.375 0 53.753906-22.695312 55.859375-51.992187 2.101563-29.292969-18.789062-55.238281-47.859375-59.433594zm-8 95.359375c-22.089844 0-40-17.910156-40-40s17.910156-40 40-40c22.09375 0 40 17.910156 40 40-.023437 22.082031-17.917968 39.972656-40 40zm0 0"/><path d="m112.003906 248c4.417969 0 8-3.582031 8-8v-8c0-4.417969-3.582031-8-8-8-4.417968 0-8 3.582031-8 8v8c0 4.417969 3.582032 8 8 8zm0 0"/></g></svg>