<svg height="32px" viewBox="0 -8 512 511" width="32px" xmlns="http://www.w3.org/2000/svg"><path d="m433.324219 291.125c-4.238281 31.429688-16.960938 61.925781-38.171875 87.796875h-272.554688c-56.71875-69.144531-52.78125-171.390625 11.789063-235.953125 28.339843-28.347656 63.933593-44.996094 100.808593-49.964844-.578124.558594-1.15625 1.117188-1.734374 1.683594-54.71875 54.726562-54.71875 143.453125 0 198.167969 54.730468 54.730469 143.453124 54.730469 198.171874 0 .578126-.566407 1.132813-1.152344 1.691407-1.730469zm0 0" fill="#ffd073"/><path d="m179.089844 377.566406c.453125.453125.910156.910156 1.378906 1.355469h-57.871094c-56.71875-69.152344-52.78125-171.390625 11.789063-235.953125 26.402343-26.410156 59.117187-42.675781 93.285156-48.777344-17.570313 8.375-34.035156 19.851563-48.582031 34.398438-68.761719 68.761718-68.761719 180.226562 0 248.976562zm0 0" fill="#f28f44"/><path d="m438.527344 182.925781 21.625-4.226562c9.472656-1.851563 9.472656-15.40625 0-17.257813l-21.625-4.226562c-12.308594-2.402344-21.933594-12.027344-24.335938-24.335938l-4.226562-21.625c-1.851563-9.472656-15.40625-9.472656-17.257813 0l-4.226562 21.625c-2.40625 12.308594-12.027344 21.929688-24.335938 24.335938l-21.625 4.226562c-9.476562 1.851563-9.476562 15.40625 0 17.257813l21.625 4.226562c12.308594 2.402344 21.929688 12.027344 24.335938 24.335938l4.226562 21.625c1.851563 9.472656 15.40625 9.472656 17.257813 0l4.226562-21.625c2.402344-12.308594 12.027344-21.933594 24.335938-24.335938zm0 0" fill="#ffee8c"/><path d="m117.574219 72.871094 17.78125-3.476563c7.789062-1.519531 7.789062-12.664062 0-14.1875l-17.78125-3.476562c-10.117188-1.976563-18.027344-9.886719-20.007813-20.007813l-3.472656-17.777344c-1.523438-7.789062-12.667969-7.789062-14.191406 0l-3.472656 17.777344c-1.976563 10.121094-9.890626 18.03125-20.007813 20.007813l-17.78125 3.476562c-7.789063 1.519531-7.789063 12.664063 0 14.1875l17.78125 3.476563c10.117187 1.976562 18.027344 9.886718 20.007813 20.007812l3.472656 17.777344c1.523437 7.789062 12.667968 7.789062 14.191406 0l3.472656-17.777344c1.980469-10.121094 9.890625-18.03125 20.007813-20.007812zm0 0" fill="#ffee8c"/><path d="m143.339844 415.417969c0-4.199219-3.402344-7.605469-7.601563-7.605469h-95.804687c-4.199219 0-7.605469 3.40625-7.605469 7.605469s3.40625 7.601562 7.605469 7.601562h95.804687c4.199219 0 7.601563-3.402343 7.601563-7.601562zm0 0"/><path d="m472.058594 407.8125h-305.902344c-4.199219 0-7.605469 3.40625-7.605469 7.605469s3.40625 7.601562 7.605469 7.601562h305.90625c4.199219 0 7.601562-3.402343 7.601562-7.601562s-3.402343-7.605469-7.605468-7.605469zm0 0"/><path d="m341.035156 451.914062c0-4.199218-3.402344-7.605468-7.605468-7.605468h-266.125c-4.199219 0-7.601563 3.40625-7.601563 7.605468 0 4.199219 3.402344 7.605469 7.601563 7.605469h266.125c4.203124 0 7.605468-3.40625 7.605468-7.605469zm0 0"/><path d="m444.6875 444.308594h-80.839844c-4.199218 0-7.601562 3.40625-7.601562 7.605468 0 4.199219 3.402344 7.605469 7.601562 7.605469h80.839844c4.199219 0 7.601562-3.40625 7.601562-7.605469 0-4.199218-3.402343-7.605468-7.601562-7.605468zm0 0"/><path d="m423.398438 480.808594h-334.800782c-4.203125 0-7.605468 3.402344-7.605468 7.601562 0 4.199219 3.402343 7.605469 7.605468 7.605469h334.800782c4.199218 0 7.601562-3.40625 7.601562-7.605469 0-4.199218-3.402344-7.601562-7.601562-7.601562zm0 0"/><path d="m341.0625 186.164062 21.625 4.222657c9.3125 1.820312 16.507812 9.015625 18.328125 18.332031l4.226563 21.625c1.527343 7.804688 8.140624 13.253906 16.09375 13.253906 7.949218 0 14.566406-5.449218 16.089843-13.253906l4.226563-21.625c1.820312-9.3125 9.015625-16.507812 18.328125-18.332031l21.628906-4.222657c7.800781-1.527343 13.25-8.144531 13.25-16.09375 0-7.949218-5.449219-14.566406-13.25-16.09375l-21.628906-4.222656c-9.3125-1.820312-16.507813-9.015625-18.328125-18.332031l-4.226563-21.625c-1.523437-7.804687-8.140625-13.25-16.089843-13.25-7.953126 0-14.566407 5.449219-16.09375 13.25l-4.226563 21.625c-1.820313 9.316406-9.015625 16.511719-18.328125 18.332031l-21.625 4.222656c-7.804688 1.527344-13.253906 8.144532-13.253906 16.09375 0 7.949219 5.449218 14.566407 13.253906 16.09375zm2.914062-17.257812 21.625-4.226562c15.417969-3.015626 27.328126-14.921876 30.339844-30.339844l4.226563-21.625c.074219-.382813.1875-.960938 1.167969-.960938.976562 0 1.089843.578125 1.164062.960938l4.226562 21.625c3.011719 15.417968 14.921876 27.324218 30.339844 30.339844l21.625 4.226562c.382813.074219.960938.1875.960938 1.164062 0 .976563-.578125 1.09375-.960938 1.164063l-21.625 4.226563c-15.417968 3.015624-27.328125 14.921874-30.339844 30.339843l-4.226562 21.625c-.074219.382813-.1875.960938-1.164062.960938-.980469 0-1.09375-.578125-1.167969-.960938l-4.226563-21.625c-3.011718-15.417969-14.921875-27.328125-30.339844-30.339843l-21.625-4.226563c-.382812-.074219-.960937-.1875-.960937-1.164063 0-.976562.578125-1.09375.960937-1.164062zm0 0"/><path d="m37.1875 76.859375 17.777344 3.472656c7.117187 1.390625 12.613281 6.886719 14.003906 14.003907l3.472656 17.777343c1.378906 7.058594 7.367188 11.988281 14.558594 11.988281s13.175781-4.929687 14.558594-11.988281l3.472656-17.777343c1.390625-7.117188 6.886719-12.613282 14.003906-14.003907l17.777344-3.472656c7.058594-1.382813 11.988281-7.367187 11.988281-14.558594 0-7.191406-4.929687-13.179687-11.988281-14.558593l-17.777344-3.472657c-7.117187-1.390625-12.613281-6.886719-14.003906-14.003906l-3.476562-17.777344c-1.378907-7.058593-7.363282-11.988281-14.554688-11.988281s-13.179688 4.929688-14.554688 11.988281l-3.476562 17.777344c-1.390625 7.117187-6.886719 12.613281-14.003906 14.003906l-17.777344 3.476563c-7.0625 1.378906-11.988281 7.363281-11.988281 14.554687 0 7.191407 4.929687 13.179688 11.988281 14.558594zm20.695312-17.664063c13.21875-2.582031 23.429688-12.792968 26.011719-26.011718l3.105469-15.886719 3.105469 15.886719c2.582031 13.21875 12.792969 23.429687 26.011719 26.011718l15.882812 3.109376-15.882812 3.101562c-13.21875 2.585938-23.429688 12.792969-26.011719 26.011719l-3.105469 15.886719-3.105469-15.886719c-2.582031-13.21875-12.792969-23.425781-26.011719-26.011719l-15.882812-3.105469zm0 0"/><path d="m504.394531 371.320312h-94.0625c16.1875-23.570312 26.679688-50.648437 30.527344-79.179687.441406-3.257813-1.265625-6.429687-4.222656-7.863281-2.960938-1.429688-6.503907-.800782-8.785157 1.566406l-.339843.355469c-.398438.410156-.796875.828125-1.257813 1.28125-25.027344 25.03125-58.304687 38.820312-93.703125 38.820312-35.398437 0-68.679687-13.789062-93.710937-38.820312-18.539063-18.539063-31.058594-41.867188-36.203125-67.460938-.828125-4.113281-4.839844-6.78125-8.953125-5.953125-4.117188.824219-6.785156 4.835938-5.957032 8.953125 5.738282 28.539063 19.691407 54.546875 40.359376 75.214844 27.902343 27.90625 65.003906 43.273437 104.464843 43.273437 32.496094 0 63.386719-10.421874 88.832031-29.65625-5.878906 21.578126-16.019531 41.792969-29.890624 59.46875h-265.246094c-24.886719-31.6875-37.527344-71.222656-35.640625-111.738281 1.949219-41.988281 19.410156-81.492187 49.160156-111.238281 21.023437-21.03125 46.550781-35.8125 74.730469-43.429688-19.257813 25.476563-29.675782 56.371094-29.675782 88.863282 0 4.199218 3.402344 7.605468 7.601563 7.605468 4.203125 0 7.605469-3.40625 7.605469-7.605468 0-35.398438 13.785156-68.679688 38.761718-93.664063.535157-.527343 1.074219-1.042969 1.609376-1.5625l.078124-.074219c2.363282-2.28125 2.992188-5.824218 1.5625-8.785156-1.433593-2.957031-4.605468-4.660156-7.859374-4.21875-40.121094 5.402344-76.488282 23.425782-105.167969 52.121094-32.433594 32.429688-51.472657 75.5-53.597657 121.28125-1.875 40.257812 9.417969 79.625 31.976563 112.445312h-99.785156c-4.203125 0-7.605469 3.40625-7.605469 7.605469s3.402344 7.601563 7.605469 7.601563h496.789062c4.203125 0 7.605469-3.402344 7.605469-7.601563s-3.402344-7.605469-7.605469-7.605469zm0 0"/><path d="m138.40625 299.867188c.800781 0 1.617188-.128907 2.417969-.398438 3.980469-1.332031 6.128906-5.640625 4.792969-9.621094l-2.878907-8.605468c-1.332031-3.980469-5.644531-6.128907-9.625-4.796876-3.980469 1.335938-6.128906 5.644532-4.796875 9.625l2.882813 8.605469c1.0625 3.179688 4.027343 5.191407 7.207031 5.191407zm0 0"/><path d="m184.648438 267.214844c-1.332032-3.980469-5.640626-6.128906-9.625-4.796875-3.980469 1.332031-6.128907 5.640625-4.796876 9.625l2.878907 8.601562c1.066406 3.183594 4.03125 5.195313 7.210937 5.195313.800782 0 1.613282-.128906 2.414063-.398438 3.984375-1.332031 6.128906-5.640625 4.796875-9.625zm0 0"/><path d="m136.183594 334.800781c8.304687 4.140625 17.265625 6.230469 26.285156 6.230469 6.308594 0 12.644531-1.023438 18.796875-3.082031 14.960937-5.007813 27.070313-15.539063 34.109375-29.65625 1.875-3.757813.34375-8.324219-3.414062-10.195313-3.757813-1.875-8.324219-.34375-10.199219 3.414063-5.222657 10.480469-14.214844 18.300781-25.320313 22.015625-11.105468 3.71875-22.996094 2.886718-33.476562-2.335938-3.757813-1.875-8.324219-.34375-10.195313 3.414063-1.875 3.757812-.347656 8.324219 3.414063 10.195312zm0 0"/></svg>