<svg height="32px" viewBox="0 -33 512 512" width="32px" xmlns="http://www.w3.org/2000/svg"><path d="m472.121094 222.746094c0 31.707031-25.699219 57.398437-57.40625 57.398437-16.238282 0-30.894532-6.742187-41.332032-17.578125 0 0 0 0 0-.007812-9.960937-10.3125-16.066406-24.351563-16.066406-39.8125 0-31.707032 25.699219-57.394532 57.398438-57.394532 29.226562 0 53.34375 21.828126 56.941406 50.070313.304688 2.398437.464844 4.847656.464844 7.324219zm0 0" fill="#fab03c"/><path d="m472.121094 222.746094c0 31.707031-25.699219 57.398437-57.40625 57.398437-16.238282 0-30.894532-6.742187-41.332032-17.578125 0 0 0 0 0-.007812-.304687-2.390625-.464843-4.828125-.464843-7.308594 0-31.707031 25.699219-57.40625 57.394531-57.40625 16.238281 0 30.902344 6.742188 41.34375 17.578125.304688 2.398437.464844 4.847656.464844 7.324219zm0 0" fill="#fd8f3e"/><path d="m122.304688 222.746094c0 7.972656-1.621094 15.5625-4.554688 22.457031-8.738281 20.539063-29.117188 34.941406-52.84375 34.941406-23.746094 0-44.125-14.402343-52.839844-34.960937-.324218-.746094-.625-1.492188-.910156-2.246094-2.367188-6.28125-3.65625-13.085938-3.65625-20.191406 0-31.707032 25.699219-57.394532 57.40625-57.394532 7.105469 0 13.910156 1.289063 20.1875 3.648438 21.742188 8.171875 37.210938 29.144531 37.210938 53.746094zm0 0" fill="#fab03c"/><path d="m117.75 245.203125c-8.738281 20.539063-29.117188 34.941406-52.84375 34.941406-23.746094 0-44.125-14.402343-52.839844-34.960937 8.738282-20.539063 29.105469-34.941406 52.839844-34.941406 7.105469 0 13.910156 1.289062 20.1875 3.648437 14.707031 5.519531 26.539062 16.910156 32.65625 31.3125zm0 0" fill="#fd8f3e"/><path d="m88.742188 189.1875c0 31.707031-25.6875 57.40625-57.394532 57.40625-7.105468 0-13.910156-1.289062-20.1875-3.660156-2.371094-6.277344-3.660156-13.082032-3.660156-20.1875 0-31.707032 25.699219-57.394532 57.40625-57.394532 7.105469 0 13.910156 1.289063 20.1875 3.648438 2.359375 6.277344 3.648438 13.082031 3.648438 20.1875zm0 0" fill="#3e4eb7"/><path d="m297.207031 64.90625c0 31.699219-25.6875 57.398438-57.394531 57.398438-20.167969 0-37.898438-10.390626-48.125-26.113282-5.867188-9-9.273438-19.746094-9.273438-31.285156 0-31.707031 25.691407-57.40625 57.398438-57.40625 11.546875 0 22.292969 3.40625 31.292969 9.273438 15.710937 10.238281 26.101562 27.976562 26.101562 48.132812zm0 0" fill="#fab03c"/><path d="m280.386719 48.078125c0 31.695313-25.699219 57.394531-57.40625 57.394531-11.542969 0-22.296875-3.414062-31.296875-9.28125-5.863282-9-9.269532-19.742187-9.269532-31.285156 0-31.707031 25.6875-57.40625 57.394532-57.40625 11.550781 0 22.296875 3.40625 31.296875 9.273438 5.863281 9 9.28125 19.753906 9.28125 31.304687zm0 0" fill="#3e4eb7"/><path d="m297.207031 380.589844c0 4.683594-.5625 9.238281-1.621093 13.59375-6.097657 25.144531-28.753907 43.8125-55.777344 43.8125-14.136719 0-27.089844-5.109375-37.085938-13.597656-12.066406-10.21875-19.847656-25.335938-20.289062-42.289063-.011719-.503906-.019532-1.007813-.019532-1.523437 0-31.695313 25.6875-57.394532 57.394532-57.394532.515625 0 1.019531.007813 1.523437.019532 31.003907.804687 55.875 26.183593 55.875 57.378906zm0 0" fill="#fab03c"/><path d="m224.53125 365.320312c-11.589844 11.589844-26.910156 17.183594-42.097656 16.789063-.011719-.503906-.019532-1.007813-.019532-1.519531 0-31.699219 25.6875-57.398438 57.394532-57.398438.515625 0 1.019531.007813 1.523437.019532.394531 15.199218-5.199219 30.507812-16.800781 42.109374zm0 0" fill="#3e4eb7"/><path d="m295.585938 394.183594c-6.097657 25.144531-28.753907 43.8125-55.777344 43.8125-14.136719 0-27.089844-5.109375-37.085938-13.597656 6.09375-25.144532 28.753906-43.808594 55.773438-43.808594.515625 0 1.019531.007812 1.523437.027344 13.542969.355468 25.929688 5.394531 35.566407 13.566406zm0 0" fill="#fd8f3e"/><path d="m388.101562 281.917969c8.128907 3.671875 17.132813 5.730469 26.617188 5.730469 35.785156 0 64.902344-29.113282 64.902344-64.902344 0-35.785156-29.117188-64.898438-64.902344-64.898438-9.484375 0-18.488281 2.058594-26.617188 5.730469-15.535156-38.910156-45.929687-70.339844-84.4375-87.164063.671876-3.738281 1.042969-7.578124 1.042969-11.507812 0-22.035156-11.03125-42.375-29.507812-54.417969-10.527344-6.859375-22.765625-10.488281-35.390625-10.488281-10.394532 0-20.75 2.535156-29.949219 7.328125-3.671875 1.914063-5.097656 6.445313-3.183594 10.117187 1.914063 3.671876 6.441407 5.097657 10.117188 3.183594 7.167969-3.734375 14.910156-5.628906 23.015625-5.628906 9.175781 0 18.078125 2.492188 25.855468 7.214844 4.726563 7.78125 7.222657 16.691406 7.222657 25.863281 0 27.511719-22.390625 49.894531-49.910157 49.894531-9.164062 0-18.066406-2.492187-25.851562-7.21875-4.722656-7.777344-7.214844-16.675781-7.214844-25.847656 0-8.589844 2.230469-17.078125 6.453125-24.535156 2.039063-3.605469.769531-8.179688-2.835937-10.21875-3.601563-2.042969-8.179688-.769532-10.21875 2.832031-5.492188 9.707031-8.394532 20.746094-8.394532 31.921875 0 3.886719.347657 7.734375 1.023438 11.507812-38.53125 16.832032-68.859375 48.195313-84.410156 87.140626-1.246094-.5625-2.507813-1.09375-3.796875-1.578126-7.289063-2.738281-14.96875-4.125-22.824219-4.125-35.789062 0-64.90625 29.113282-64.90625 64.894532 0 7.867187 1.394531 15.550781 4.136719 22.824218 9.445312 25.167969 33.867187 42.074219 60.769531 42.074219 9.351562 0 18.382812-2.0625 26.589844-5.785156 15.53125 38.9375 45.960937 70.402344 84.457031 87.222656-.671875 3.738281-1.039063 7.578125-1.039063 11.503907 0 .566406.007813 1.121093.019532 1.71875.441406 16.976562 7.386718 32.867187 19.554687 44.742187 12.191407 11.894531 28.285157 18.449219 45.320313 18.449219 8.894531 0 17.523437-1.773438 25.648437-5.273438 3.804688-1.640625 5.558594-6.050781 3.921875-9.855468-1.640625-3.804688-6.050781-5.558594-9.855468-3.921876-6.242188 2.6875-12.875 4.050782-19.714844 4.050782-13.097656 0-25.472656-5.039063-34.84375-14.183594-7.574219-7.394531-12.511719-16.804688-14.300782-27.023438 14.789063-1.5 28.46875-7.964843 39.167969-18.667968 10.707031-10.703125 17.160157-24.386719 18.65625-39.179688 10.238281 1.789063 19.648438 6.730469 27.039063 14.300782 9.144531 9.371093 14.179687 21.746093 14.179687 34.847656 0 9.851562-2.871093 19.382812-8.304687 27.566406-2.292969 3.449219-1.351563 8.105469 2.101562 10.394531 3.449219 2.292969 8.105469 1.351563 10.394532-2.097656 7.070312-10.652344 10.808593-23.054687 10.808593-35.867187 0-3.894532-.359375-7.738282-1.03125-11.5 38.546875-16.839844 68.878907-48.207032 84.425781-87.167969zm76.519532-59.171875c0 27.519531-22.386719 49.902344-49.902344 49.902344s-49.902344-22.382813-49.902344-49.902344c0-27.515625 22.386719-49.898438 49.902344-49.898438s49.902344 22.382813 49.902344 49.898438zm-176.816406-171.453125c1.234374 4.371093 1.902343 8.941406 1.902343 13.617187 0 27.511719-22.382812 49.894532-49.898437 49.894532-4.6875 0-9.265625-.667969-13.648438-1.910157 33.253906-1.613281 60.015625-28.359375 61.644532-61.601562zm-222.898438 121.558593c4.875 0 9.65625.703126 14.261719 2.074219 1.371093 4.605469 2.074219 9.386719 2.074219 14.261719 0 27.519531-22.382813 49.90625-49.894532 49.90625-4.882812 0-9.664062-.707031-14.265625-2.082031-1.375-4.601563-2.082031-9.382813-2.082031-14.265625 0-27.511719 22.386719-49.894532 49.90625-49.894532zm154.320312 187.164063c-7.929687 7.933594-17.992187 12.835937-28.894531 14.214844 2.867188-22.429688 20.671875-40.242188 43.097657-43.117188-1.375 10.902344-6.265626 20.964844-14.203126 28.902344zm67.039063-24.75c-11.875-12.164063-27.761719-19.109375-44.78125-19.550781-.554687-.011719-1.105469-.023438-1.671875-.023438-26.558594 0-49.425781 16.039063-59.460938 38.9375-34.875-15.746094-62.246093-44.828125-75.816406-80.613281 10.554688-8.152344 18.648438-19.496094 22.589844-32.804687 1.175781-3.972657-1.089844-8.144532-5.058594-9.324219-3.972656-1.175781-8.144531 1.089843-9.324218 5.0625-6.226563 21.019531-25.898438 35.695312-47.835938 35.695312-15.367188 0-29.675781-7.175781-39-18.800781 1.800781.152344 3.613281.25 5.4375.25 35.785156 0 64.898438-29.117188 64.898438-64.90625 0-1.816406-.082032-3.621094-.230469-5.414062 7.882812 6.3125 13.820312 14.941406 16.734375 24.773437 1.175781 3.972656 5.351562 6.242187 9.320312 5.0625 3.972656-1.175781 6.238282-5.351563 5.0625-9.320313-3.890625-13.132812-11.917968-24.617187-22.574218-32.882812 13.589843-35.800781 40.882812-64.769531 75.78125-80.523438 1.421874 3.25 3.105468 6.394532 5.0625 9.398438 12.027343 18.488281 32.367187 29.523438 54.410156 29.523438 26.558594 0 49.429687-16.039063 59.464844-38.9375 34.875 15.75 62.21875 44.792968 75.792968 80.554687-15.34375 11.878906-25.25 30.464844-25.25 51.328125s9.90625 39.449219 25.253906 51.332031c-13.585937 35.804688-40.875 64.773438-75.777343 80.53125-3.101563-7.097656-7.472657-13.652343-13.027344-19.347656zm0 0"/><path d="m407.21875 132.964844v12.363281c0 4.144531 3.355469 7.5 7.5 7.5 4.140625 0 7.5-3.355469 7.5-7.5v-12.363281c0-4.140625-3.359375-7.5-7.5-7.5-4.144531 0-7.5 3.359375-7.5 7.5zm0 0"/><path d="m407.21875 300.167969v12.363281c0 4.140625 3.355469 7.5 7.5 7.5 4.140625 0 7.5-3.359375 7.5-7.5v-12.363281c0-4.144531-3.359375-7.5-7.5-7.5-4.144531 0-7.5 3.355469-7.5 7.5zm0 0"/><path d="m459.921875 286.046875c-2.070313-3.589844-6.660156-4.820313-10.246094-2.746094-3.585937 2.070313-4.816406 6.65625-2.742187 10.246094l6.179687 10.707031c1.390625 2.402344 3.910157 3.75 6.503907 3.75 1.269531 0 2.5625-.324218 3.742187-1.007812 3.585937-2.070313 4.816406-6.65625 2.746094-10.242188zm0 0"/><path d="m333.214844 184.351562 10.707031 6.183594c1.179687.679688 2.46875 1.003906 3.742187 1.003906 2.59375 0 5.113282-1.34375 6.5-3.75 2.074219-3.585937.84375-8.175781-2.742187-10.246093l-10.707031-6.179688c-3.589844-2.074219-8.175782-.84375-10.246094 2.742188-2.070312 3.589843-.84375 8.175781 2.746094 10.246093zm0 0"/><path d="m496.222656 261.144531-10.707031-6.183593c-3.589844-2.070313-8.175781-.839844-10.246094 2.746093-2.070312 3.585938-.84375 8.175781 2.746094 10.246094l10.707031 6.179687c1.179688.683594 2.46875 1.007813 3.742188 1.007813 2.59375 0 5.113281-1.347656 6.503906-3.75 2.070312-3.589844.839844-8.175781-2.746094-10.246094zm0 0"/><path d="m504.5 215.246094h-12.363281c-4.140625 0-7.5 3.359375-7.5 7.5 0 4.144531 3.359375 7.5 7.5 7.5h12.363281c4.140625 0 7.5-3.355469 7.5-7.5 0-4.140625-3.359375-7.5-7.5-7.5zm0 0"/><path d="m324.933594 230.246094h12.367187c4.140625 0 7.5-3.355469 7.5-7.5 0-4.140625-3.359375-7.5-7.5-7.5h-12.367187c-4.140625 0-7.5 3.359375-7.5 7.5 0 4.144531 3.359375 7.5 7.5 7.5zm0 0"/><path d="m481.769531 191.539062c1.273438 0 2.5625-.324218 3.746094-1.003906l10.707031-6.183594c3.585938-2.070312 4.816406-6.65625 2.746094-10.246093-2.074219-3.585938-6.660156-4.816407-10.246094-2.742188l-10.707031 6.179688c-3.589844 2.070312-4.816406 6.660156-2.746094 10.246093 1.386719 2.40625 3.910157 3.75 6.5 3.75zm0 0"/><path d="m343.921875 254.960938-10.707031 6.183593c-3.585938 2.070313-4.816406 6.65625-2.746094 10.246094 1.390625 2.40625 3.910156 3.75 6.503906 3.75 1.269532 0 2.558594-.324219 3.742188-1.007813l10.707031-6.179687c3.585937-2.070313 4.816406-6.660156 2.742187-10.246094-2.070312-3.585937-6.65625-4.816406-10.242187-2.746093zm0 0"/><path d="m449.675781 162.195312c1.183594.683594 2.472657 1.007813 3.746094 1.007813 2.589844 0 5.109375-1.347656 6.5-3.753906l6.183594-10.707031c2.070312-3.585938.839843-8.171876-2.746094-10.242188-3.589844-2.070312-8.175781-.84375-10.246094 2.742188l-6.179687 10.707031c-2.074219 3.589843-.84375 8.175781 2.742187 10.246093zm0 0"/><path d="m342.738281 370.355469c-4.140625 0-7.5 3.355469-7.5 7.5 0 4.140625 3.359375 7.5 7.5 7.5h16.445313c4.140625 0 7.5-3.359375 7.5-7.5 0-4.144531-3.359375-7.5-7.5-7.5zm0 0"/><path d="m421.671875 397.210938h-78.933594c-4.140625 0-7.5 3.359374-7.5 7.5 0 4.140624 3.359375 7.5 7.5 7.5h78.933594c4.140625 0 7.5-3.359376 7.5-7.5 0-4.140626-3.359375-7.5-7.5-7.5zm0 0"/><path d="m421.671875 418.730469h-78.933594c-4.140625 0-7.5 3.359375-7.5 7.5s3.359375 7.5 7.5 7.5h78.933594c4.140625 0 7.5-3.359375 7.5-7.5s-3.359375-7.5-7.5-7.5zm0 0"/><path d="m331.476562 22.527344h16.441407c4.144531 0 7.5-3.359375 7.5-7.5s-3.355469-7.5-7.5-7.5h-16.441407c-4.144531 0-7.5 3.359375-7.5 7.5s3.355469 7.5 7.5 7.5zm0 0"/><path d="m331.476562 49.382812h78.929688c4.140625 0 7.5-3.355468 7.5-7.5 0-4.140624-3.359375-7.5-7.5-7.5h-78.929688c-4.144531 0-7.5 3.359376-7.5 7.5 0 4.144532 3.355469 7.5 7.5 7.5zm0 0"/><path d="m331.476562 70.902344h78.929688c4.140625 0 7.5-3.355469 7.5-7.5 0-4.140625-3.359375-7.5-7.5-7.5h-78.929688c-4.144531 0-7.5 3.359375-7.5 7.5 0 4.144531 3.355469 7.5 7.5 7.5zm0 0"/><path d="m131.480469 37.113281h.035156c4.125 0 7.480469-3.335937 7.5-7.464843l.011719-2.738282c.019531-4.140625-3.320313-7.511718-7.464844-7.53125-4.164062-.035156-7.515625 3.320313-7.535156 7.464844l-.011719 2.734375c-.019531 4.144531 3.324219 7.515625 7.464844 7.535156zm0 0"/><path d="m131.480469 47.238281c-.011719 0-.027344 0-.039063 0-4.125 0-7.476562 3.335938-7.5 7.464844l-.011718 2.738281c-.019532 4.140625 3.324218 7.515625 7.464843 7.535156h.035157c4.125 0 7.480468-3.332031 7.5-7.464843l.011718-2.734375c.023438-4.144532-3.320312-7.515625-7.460937-7.539063zm0 0"/><path d="m136.570312 42.175781c-.019531 4.144531 3.320313 7.515625 7.460938 7.539063l2.746094.011718h.035156c4.125 0 7.480469-3.335937 7.5-7.464843.019531-4.140625-3.324219-7.515625-7.464844-7.535157l-2.742187-.011718c-.011719 0-.023438 0-.039063 0-4.125 0-7.476562 3.332031-7.496094 7.460937zm0 0"/><path d="m116.109375 49.628906 2.746094.011719h.035156c4.125 0 7.480469-3.335937 7.5-7.464844.019531-4.140625-3.324219-7.515625-7.464844-7.535156l-2.742187-.011719c-.011719 0-.023438 0-.039063 0-4.125 0-7.476562 3.332032-7.496093 7.460938-.019532 4.144531 3.320312 7.515625 7.460937 7.539062zm0 0"/><path d="m165.476562 262.574219h.039063c4.125 0 7.476563-3.332031 7.5-7.460938l.011719-2.738281c.019531-4.140625-3.324219-7.515625-7.464844-7.535156-.011719 0-.023438 0-.035156 0-4.125 0-7.480469 3.332031-7.5 7.464844l-.011719 2.734374c-.023437 4.144532 3.320313 7.515626 7.460937 7.535157zm0 0"/><path d="m165.476562 272.703125c-.011718 0-.023437 0-.035156 0-4.125 0-7.480468 3.332031-7.5 7.464844l-.011718 2.734375c-.023438 4.144531 3.320312 7.519531 7.460937 7.539062h.039063c4.125 0 7.476562-3.335937 7.5-7.464844l.011718-2.738281c.019532-4.140625-3.324218-7.515625-7.464844-7.535156zm0 0"/><path d="m180.847656 260.1875-2.746094-.011719c-4.125-.003906-7.515624 3.320313-7.535156 7.464844-.019531 4.140625 3.324219 7.515625 7.464844 7.535156l2.742188.011719h.039062c4.125 0 7.476562-3.332031 7.496094-7.460938.019531-4.144531-3.320313-7.515624-7.460938-7.539062zm0 0"/><path d="m160.386719 267.636719c.019531-4.140625-3.320313-7.515625-7.464844-7.535157l-2.742187-.011718c-.011719 0-.023438 0-.035157 0-4.125 0-7.480469 3.335937-7.5 7.464844-.019531 4.140624 3.324219 7.515624 7.464844 7.535156l2.742187.011718h.039063c4.125 0 7.476563-3.332031 7.496094-7.464843zm0 0"/><path d="m131.527344 399.648438h.039062c4.125 0 7.480469-3.335938 7.5-7.464844l.011719-2.738282c.019531-4.140624-3.320313-7.515624-7.464844-7.535156-4.105469.003906-7.515625 3.320313-7.535156 7.464844l-.011719 2.738281c-.019531 4.140625 3.320313 7.515625 7.460938 7.535157zm0 0"/><path d="m131.527344 409.773438c-.011719 0-.023438 0-.035156 0-4.125 0-7.480469 3.335937-7.5 7.464843l-.011719 2.738281c-.019531 4.140626 3.320312 7.515626 7.464843 7.535157h.035157c4.125 0 7.480469-3.335938 7.5-7.464844l.011719-2.738281c.019531-4.140625-3.324219-7.515625-7.464844-7.535156zm0 0"/><path d="m146.898438 397.261719-2.742188-.015625c-.015625 0-.023438 0-.039062 0-4.125 0-7.476563 3.335937-7.5 7.464844-.019532 4.144531 3.324218 7.515624 7.464843 7.535156l2.742188.015625h.039062c4.125 0 7.480469-3.335938 7.5-7.464844.019531-4.140625-3.324219-7.515625-7.464843-7.535156zm0 0"/><path d="m126.4375 404.710938c.019531-4.144532-3.320312-7.519532-7.464844-7.535157l-2.742187-.015625c-.011719 0-.023438 0-.035157 0-4.125 0-7.480468 3.335938-7.5 7.464844-.019531 4.144531 3.324219 7.515625 7.464844 7.535156l2.742188.015625h.039062c4.125 0 7.480469-3.335937 7.496094-7.464843zm0 0"/></svg>