<?xml version="1.0" encoding="iso-8859-1"?>
<!-- Generator: Adobe Illustrator 19.0.0, SVG Export Plug-In . SVG Version: 6.00 Build 0)  -->
<svg height="32px" width="32px" version="1.1" id="Layer_1" xmlns="http://www.w3.org/2000/svg" xmlns:xlink="http://www.w3.org/1999/xlink" x="0px" y="0px"
	 viewBox="0 0 512 512" style="enable-background:new 0 0 512 512;" xml:space="preserve">
<path style="fill:#68CCEA;" d="M263.209,184.944l20.002,38.549c23.774,63.657-8.553,134.523-72.208,158.295
	c-12.947,4.835-26.193,7.315-39.281,7.715c-13.088-0.399-26.334-2.879-39.283-7.715c-63.653-23.772-95.982-94.637-72.206-158.295
	L171.722,8.608l77.838,150.028"/>
<g>
	<path style="fill:#5ABCE2;" d="M436.168,243.354l19.609,37.795c11.72,31.385-4.218,66.327-35.605,78.048
		c-6.385,2.383-12.914,3.607-19.367,3.803c-6.456-0.198-12.985-1.42-19.369-3.803c-31.388-11.722-47.325-46.663-35.603-78.048
		l54.972-105.954l23.241,44.793"/>
	<path style="fill:#5ABCE2;" d="M322.605,500.859c-4.255,1.587-8.608,2.401-12.905,2.534c-4.302-0.132-8.654-0.948-12.907-2.534
		c-20.914-7.811-31.535-31.093-23.726-52.009l36.633-70.601l36.629,70.601C354.14,469.765,343.519,493.047,322.605,500.859z"/>
	<path style="fill:#5ABCE2;" d="M179.814,370.131c-26.724-26.335-41.594-61.503-41.871-99.028c-0.001-0.121,0.005-0.242,0.02-0.363
		L167.927,8.608L57.341,221.754c-0.051,0.097-0.095,0.196-0.132,0.297c-11.75,31.461-10.548,65.612,3.389,96.162
		c13.936,30.552,38.936,53.846,70.395,65.594c12.886,4.812,26.39,7.465,40.143,7.883c0.027,0.001,0.055,0.001,0.082,0.001
		c0.027,0,0.055,0,0.082-0.001c10.026-0.306,19.918-1.812,29.536-4.464C193.378,382.265,186.338,376.558,179.814,370.131z"/>
</g>
<g>
	<path style="fill:#68CCEA;" d="M457.792,279.707c-0.038-0.101-0.082-0.2-0.132-0.297l-54.972-105.954
		c-0.463-0.891-1.383-1.451-2.388-1.451c-0.005,0-0.011,0.002-0.016,0.002L378.644,297.85c-0.02,0.118-0.033,0.238-0.038,0.356
		c-0.917,18.626,5.474,36.493,17.996,50.308c5.365,5.92,11.586,10.784,18.403,14.493c1.889-0.512,3.759-1.103,5.602-1.79
		C453.33,348.996,470.012,312.431,457.792,279.707z"/>
	<path style="fill:#68CCEA;" d="M348.344,447.408c-0.038-0.102-0.082-0.2-0.132-0.297l-36.629-70.601
		c-0.463-0.891-1.383-1.451-2.388-1.451c-0.286,0-0.561,0.056-0.824,0.142l-15.039,88.472c-0.022,0.119-0.033,0.243-0.04,0.366
		c-0.788,16.737,7.014,31.927,19.509,41.291c3.494-0.394,6.925-1.215,10.24-2.45C345.311,494.561,356.661,469.676,348.344,447.408z"
		/>
</g>
<g>
	<path style="fill:#231F20;" d="M171.722,398.11c-0.087,0-0.175-0.001-0.263-0.004c-14.398-0.439-28.54-3.216-42.031-8.255
		c-32.94-12.301-59.117-36.693-73.709-68.681c-14.593-31.99-15.853-67.748-3.55-100.688c0.122-0.326,0.263-0.645,0.423-0.953
		L164.081,4.643C165.561,1.79,168.507,0,171.722,0l0,0c3.214,0,6.161,1.79,7.64,4.643l77.838,150.028
		c2.188,4.22,0.543,9.416-3.677,11.605c-4.222,2.188-9.416,0.542-11.605-3.677L171.722,27.298L68.119,226.985
		c-10.503,28.499-9.349,59.39,3.262,87.039c12.683,27.805,35.437,49.006,64.07,59.699c11.644,4.348,23.846,6.758,36.271,7.166
		c12.425-0.408,24.627-2.818,36.269-7.166c28.632-10.694,51.387-31.895,64.071-59.699c12.612-27.649,13.766-58.539,3.264-87.039
		l-19.757-38.078c-2.19-4.22-0.544-9.416,3.675-11.604c4.224-2.191,9.416-0.542,11.604,3.675l20.002,38.549
		c0.16,0.309,0.301,0.627,0.424,0.953c12.303,32.941,11.042,68.7-3.551,100.688c-14.592,31.988-40.77,56.38-73.71,68.681
		c-13.489,5.039-27.63,7.816-42.03,8.255C171.898,398.109,171.809,398.11,171.722,398.11z"/>
	<path style="fill:#231F20;" d="M400.805,371.608c-0.087,0-0.175-0.001-0.264-0.004c-7.575-0.231-15.016-1.692-22.116-4.343
		c-17.335-6.475-31.11-19.309-38.789-36.142c-7.678-16.833-8.341-35.649-1.867-52.982c0.122-0.326,0.263-0.645,0.422-0.953
		l54.972-105.954c1.48-2.852,4.426-4.643,7.641-4.643c3.214,0,6.161,1.79,7.641,4.643l23.241,44.793
		c2.188,4.22,0.543,9.416-3.677,11.605c-4.221,2.188-9.415,0.543-11.605-3.677l-15.599-30.066l-47.082,90.747
		c-4.678,12.894-4.123,26.846,1.577,39.342c5.769,12.649,16.121,22.295,29.147,27.159c5.253,1.96,10.755,3.056,16.358,3.255
		c5.601-0.2,11.103-1.294,16.357-3.256c26.729-9.982,40.431-39.735,30.726-66.501l-19.36-37.314
		c-2.188-4.22-0.543-9.416,3.676-11.605c4.224-2.187,9.417-0.541,11.605,3.677l19.609,37.795c0.159,0.309,0.301,0.627,0.422,0.953
		c13.361,35.781-4.877,75.761-40.657,89.123c-7.101,2.651-14.541,4.112-22.115,4.344
		C400.98,371.607,400.893,371.608,400.805,371.608z"/>
	<path style="fill:#231F20;" d="M309.7,512c-0.088,0-0.176-0.001-0.265-0.004c-5.36-0.165-10.626-1.199-15.651-3.073
		c-25.327-9.459-38.237-37.758-28.782-63.084c0.122-0.327,0.264-0.646,0.425-0.954l36.633-70.601
		c1.479-2.852,4.425-4.643,7.64-4.643l0,0c3.214,0,6.161,1.79,7.641,4.643l36.629,70.601c0.159,0.309,0.301,0.627,0.423,0.953
		c9.459,25.326-3.451,53.625-28.775,63.084c-5.03,1.875-10.295,2.909-15.652,3.074C309.876,511.999,309.788,512,309.7,512z
		 M280.962,452.323c-5.81,16.316,2.563,34.393,18.842,40.473c3.177,1.186,6.506,1.853,9.895,1.985
		c3.386-0.132,6.716-0.801,9.898-1.987c16.275-6.079,24.647-24.156,18.836-40.471L309.7,396.939L280.962,452.323z"/>
</g>
<g>
</g>
<g>
</g>
<g>
</g>
<g>
</g>
<g>
</g>
<g>
</g>
<g>
</g>
<g>
</g>
<g>
</g>
<g>
</g>
<g>
</g>
<g>
</g>
<g>
</g>
<g>
</g>
<g>
</g>
</svg>
