<svg height="32px" viewBox="-9 0 512 512.003" width="32px" xmlns="http://www.w3.org/2000/svg"><path d="m114.929688 41.472656c0 70.582032 121.867187 132.441406 35.390624 261.773438-86.476562 129.328125 121.441407 180.871094 121.441407 180.871094s-116.253907-91.925782 29.199219-171.164063c193.921874-105.640625 151.035156-271.480469 151.035156-271.480469zm0 0" fill="#f4bc8e"/><path d="m300.960938 312.949219c-145.449219 79.242187-29.199219 171.171875-29.199219 171.171875s-44.757813-11.101563-84.109375-35.910156c-20.179688-34.039063-28.660156-87 59.921875-135.261719 193.929687-105.640625 151.039062-271.480469 151.039062-271.480469h53.378907s42.890624 165.839844-151.03125 271.480469zm0 0" fill="#efa66f"/><path d="m451.996094 41.472656c0-18.761718-75.457032-33.972656-168.53125-33.972656-93.078125 0-168.53125 15.210938-168.53125 33.972656 0 18.761719 75.453125 33.972656 168.53125 33.972656 93.074218 0 168.53125-15.210937 168.53125-33.972656zm0 0" fill="#fbdbb7"/><path d="m429.441406 58.460938c-29.140625 10.148437-83.597656 16.980468-145.980468 16.980468-62.378907 0-116.839844-6.832031-145.976563-16.980468 29.136719-10.160157 83.597656-16.992188 145.976563-16.992188 62.382812 0 116.839843 6.832031 145.980468 16.992188zm0 0" fill="#efa66f"/><path d="m25.148438 470.101562h21.007812c2.242188-9.808593 11.25-17.144531 22.035156-17.144531 1.96875 0 3.875.246094 5.695313.707031 5.417969-14.121093 19.4375-24.183593 35.882812-24.183593 18.046875 0 33.167969 12.121093 37.210938 28.425781 2.296875-1.386719 4.996093-2.203125 7.898437-2.203125 8.222656 0 14.894532 6.4375 14.964844 14.398437h57.960938c3.632812-7.378906 11.394531-12.476562 20.382812-12.476562 5.734375 0 10.964844 2.074219 14.945312 5.492188 1.789063-14.855469 14.800782-26.390626 30.59375-26.390626 14.085938 0 25.953126 9.171876 29.628907 21.695313 5.347656-10.132813 16.152343-17.101563 28.65625-17.246094 6.867187-17.777343 24.539062-30.429687 45.257812-30.429687 25.691407 0 46.695313 19.453125 48.226563 44.003906 13.753906.457031 24.757812 11.410156 24.757812 24.863281 0 13.746094-11.484375 24.886719-25.652344 24.886719-7.753906 0-419.453124-.15625-419.453124-.15625-9.746094 0-17.648438-7.664062-17.648438-17.121094 0-9.457031 7.902344-17.121094 17.648438-17.121094zm0 0" fill="#c4e1e8"/><path d="m7.5 487.21875c0 9.457031 7.90625 17.125 17.652344 17.125 0 0 5.269531 0 14.636718.011719-.007812-.089844-.007812-.183594-.007812-.273438 0-4.730469 1.972656-9.003906 5.167969-12.101562 3.191406-3.097657 7.605469-5.015625 12.476562-5.015625h21.003907c2.246093-9.808594 11.257812-17.144532 22.039062-17.144532 1.964844 0 3.875.246094 5.699219.707032 5.390625-14.0625 19.300781-24.089844 35.660156-24.179688-6.824219-10.15625-18.628906-16.867187-32.054687-16.867187-16.445313 0-30.46875 10.066406-35.886719 24.183593-1.816407-.460937-3.722657-.707031-5.695313-.707031-10.785156 0-19.796875 7.335938-22.03125 17.144531h-21.007812c-4.867188 0-9.28125 1.914063-12.484375 5.011719-3.195313 3.101563-5.167969 7.378907-5.167969 12.105469zm0 0" fill="#a4d5dd"/><g fill="#00df97"><path d="m273.289062 149.027344c-4.832031 6.402344-12.5 10.539062-21.152343 10.539062-8.648438 0-16.316407-4.136718-21.148438-10.539062 4.832031-6.398438 12.5-10.539063 21.148438-10.539063 8.652343 0 16.320312 4.140625 21.152343 10.539063zm0 0"/><path d="m285.371094 262.984375c1.484375 10.621094-1.855469 21.792969-10.039063 29.976563-8.179687 8.179687-19.351562 11.519531-29.976562 10.035156-1.484375-10.625 1.855469-21.796875 10.035156-29.976563 8.183594-8.183593 19.355469-11.523437 29.980469-10.035156zm0 0"/><path d="m441.785156 227.628906c-9.34375 1.304688-19.171875-1.632812-26.371094-8.832031-7.195312-7.195313-10.132812-17.023437-8.828124-26.367187 9.34375-1.308594 19.171874 1.628906 26.371093 8.828124 7.199219 7.195313 10.136719 17.023438 8.828125 26.371094zm0 0"/><path d="m35.621094 370.335938c9.34375 1.308593 19.171875-1.628907 26.371094-8.828126 7.199218-7.199218 10.136718-17.023437 8.828124-26.371093-9.34375-1.304688-19.171874 1.632812-26.367187 8.832031-7.199219 7.195312-10.136719 17.023438-8.832031 26.367188zm0 0"/><path d="m178.382812 86.011719c9.34375 1.304687 19.171876-1.632813 26.367188-8.832031 7.199219-7.195313 10.136719-17.023438 8.832031-26.367188-9.34375-1.308594-19.171875 1.628906-26.371093 8.828125-7.199219 7.199219-10.136719 17.023437-8.828126 26.371094zm0 0"/></g><path d="m371.902344 455.699219c-4.144532 0-7.5 3.359375-7.5 7.5 0 4.144531 3.355468 7.5 7.5 7.5h.09375c4.140625 0 7.453125-3.355469 7.453125-7.5 0-4.140625-3.40625-7.5-7.546875-7.5zm0 0"/><path d="m386.75 457.453125h.097656c4.140625 0 7.449219-3.359375 7.449219-7.5 0-4.144531-3.40625-7.5-7.546875-7.5s-7.5 3.355469-7.5 7.5c0 4.140625 3.359375 7.5 7.5 7.5zm0 0"/><path d="m493.726562 122.128906c0-10.214844-10.074218-18.253906-30.742187-24.503906.222656-3.261719.371094-6.375.453125-9.308594.730469-26.191406-3.089844-44.109375-3.996094-47.964844-1.113281-14.988281-24.722656-25.867187-72.097656-33.21875-4.089844-.636718-7.925781 2.167969-8.5625 6.261719-.632812 4.089844 2.167969 7.925781 6.261719 8.558594 52.308593 8.121094 58.964843 18.632813 59.429687 19.539063-.792968 2.414062-10.640625 10.367187-45.992187 17.179687-31.042969 5.980469-71.890625 9.273437-115.015625 9.273437-22.066406 0-43.363282-.84375-63.445313-2.515624 1.375-5.003907 1.734375-10.308594.988281-15.65625-.464843-3.316407-3.074218-5.921876-6.390624-6.386719-12.128907-1.699219-24.050782 2.296875-32.710938 10.953125-1.824219 1.820312-3.425781 3.796875-4.824219 5.882812-47.957031-8.019531-54.179687-17.890625-54.628906-18.769531.792969-2.414063 10.644531-10.363281 45.992187-17.175781 31.046876-5.984375 71.890626-9.277344 115.019532-9.277344 24.207031 0 47.550781 1.019531 69.378906 3.035156 4.132812.40625 7.777344-2.652344 8.15625-6.777344.382812-4.125-2.652344-7.777343-6.777344-8.15625-22.285156-2.058593-46.09375-3.101562-70.757812-3.101562-45.5 0-88.347656 3.585938-120.652344 10.097656-16.082031 3.242188-28.820312 7.070313-37.863281 11.382813-11.625 5.539062-17.519531 12.265625-17.519531 19.992187 0 23.46875 11.894531 45.1875 25.140624 67.21875 1.40625 2.339844 3.886719 3.632813 6.433594 3.632813 1.316406 0 2.648438-.34375 3.855469-1.070313 3.550781-2.136718 4.699219-6.742187 2.5625-10.292968-7.910156-13.160157-15.292969-26.136719-19.464844-39.019532 10.527344 4.890625 25.585938 9.039063 45.292969 12.496094-.773438 4.089844-.894531 8.335938-.296875 12.613281.464844 3.316407 3.070313 5.925781 6.386719 6.386719 1.835937.257812 3.664062.382812 5.476562.382812 10.1875 0 19.886719-3.984374 27.234375-11.335937.859375-.855469 1.65625-1.753906 2.417969-2.667969 22.332031 2.070313 46.191406 3.128906 70.992188 3.128906 45.5 0 88.347656-3.585937 120.652343-10.097656 16.082031-3.242187 28.816407-7.070312 37.859375-11.378906 1.902344-.90625 3.636719-1.847656 5.230469-2.816406 1.820313 16.425781 2.726563 44.660156-5.515625 77.78125-22.96875 4.621094-52.460938 7.160156-83.464844 7.160156-4.140625 0-7.5 3.359375-7.5 7.5 0 4.144531 3.359375 7.5 7.5 7.5 28.796875 0 56.199219-2.121094 78.8125-6.03125-3.621094 10.988281-8.308594 22.359375-14.320312 33.886719-5.441406-1.742188-11.277344-2.269531-17.167969-1.445313-3.316406.460938-5.925781 3.070313-6.390625 6.386719-1.234375 8.847656.566406 17.574219 4.980469 25.011719-16.925781 23.308594-38.550781 44.535156-64.597657 63.453125-15.1875 1.480469-31.742187 2.363281-48.84375 2.589843 2.320313-6.445312 3.085938-13.4375 2.097657-20.5-.460938-3.316406-3.070313-5.925781-6.386719-6.386718-13.464844-1.890625-26.707031 2.546875-36.320312 12.160156-3.957032 3.957031-7.019532 8.535156-9.140626 13.480469-29.925781-1.953125-50.976562-5.660157-64.722656-9.402344 11.835938-27.417969 14.460938-51.847656 11.542969-74.179687 1.097656.230468 2.207031.464843 3.335937.691406 32.304688 6.511718 75.152344 10.097656 120.648438 10.097656 23.808594 0 46.859375-.972656 68.503906-2.894531 4.125-.367188 7.171875-4.007813 6.808594-8.132813-.367188-4.128906-4.007812-7.167968-8.136719-6.808594-21.207031 1.878907-43.804687 2.835938-67.175781 2.835938-43.125 0-83.972656-3.296875-115.015625-9.277344-4.402344-.847656-8.410156-1.714844-12.054687-2.585937-4.75-18.738281-13.058594-36.039063-22.453126-52.507813-2.054687-3.59375-6.636718-4.847656-10.230468-2.796875-3.597656 2.054688-4.851563 6.632813-2.796875 10.230469 1.828125 3.207031 3.640625 6.472656 5.40625 9.796875-7.726563 3.453125-18.886719 10.03125-18.886719 20.667969 0 7.726562 5.894531 14.453125 17.519531 19.992187 5.121094 2.441407 11.425781 4.726563 18.851563 6.839844 2.503906 14.15625 2.597656 29.496094-1.191406 46.34375-13.386719 3.753906-30.367188 10.195313-30.367188 22.902344 0 7.886719 6.558594 13.386719 14.855469 17.34375-3.265625 6.066406-7.007813 12.300781-11.304688 18.71875-11.980469 17.921875-19.140625 35.378906-21.46875 52.207031-7.835937 2.449219-23.632812 8.351562-23.632812 20.53125 0 9.558594 9.386719 16.769531 28.652343 21.992188 12.0625 30.519531 40.964844 53.070312 69.769532 68.796874h-21.453125c-3.183594-8.390624-11.453125-14.398437-21.070313-14.398437-1.101562 0-2.199218.082031-3.28125.238281-7.222656-15.90625-23.425781-26.460937-41.828125-26.460937-16.910156 0-32.429687 9.238281-40.324219 23.5-.417968-.015625-.835937-.023438-1.257812-.023438-11.828125 0-22.492188 6.933594-27.324219 17.144531h-15.714843c-13.867188 0-25.148438 11.046876-25.148438 24.621094 0 13.574219 11.28125 24.621094 25.148438 24.621094l306.382812.117188c4.140625 0 7.5-3.359376 7.5-7.5.003906-4.140626-3.355469-7.5-7.496094-7.5l-306.386718-.117188c-5.59375 0-10.144532-4.316406-10.144532-9.621094 0-5.304687 4.550782-9.621094 10.144532-9.621094h21.007812c3.5 0 6.535156-2.417968 7.3125-5.832031 1.496094-6.554687 7.6875-11.3125 14.722656-11.3125 1.308594 0 2.605469.160157 3.863282.480469 3.679687.925781 7.476562-1.042969 8.835937-4.585938 4.445313-11.585937 16.050781-19.371093 28.878906-19.371093 14.308594 0 26.613281 9.347656 29.933594 22.730469.574219 2.3125 2.210937 4.214843 4.414063 5.125 2.199218.910156 4.703124.722656 6.742187-.511719 1.214844-.730469 2.601563-1.121094 4.019531-1.121094 4.082032 0 7.433594 3.125 7.46875 6.96875.039063 4.113281 3.382813 7.429687 7.5 7.429687h57.960938c2.855468 0 5.46875-1.621093 6.726562-4.1875 2.480469-5.035156 7.839844-8.289062 13.652344-8.289062 3.71875 0 7.292969 1.308594 10.0625 3.6875 2.101562 1.800781 5.023438 2.300781 7.601562 1.296875 2.582032-1.003906 4.398438-3.347656 4.730469-6.09375 1.355469-11.28125 11.308594-19.785156 23.144531-19.785156 10.390626 0 19.613282 6.703125 22.433594 16.304687.855469 2.929688 3.40625 5.042969 6.445313 5.351563 3.039062.292969 5.953125-1.265625 7.382812-3.960938 4.253907-8.0625 12.726563-13.140625 22.109375-13.25 3.066406-.035156 5.804688-1.9375 6.90625-4.796875 5.925782-15.328125 21.300782-25.628906 38.265625-25.628906 21.550781 0 39.449219 16.238281 40.742188 36.96875.238281 3.855469 3.371093 6.898438 7.234375 7.027344 9.816406.328125 17.507812 7.957031 17.507812 17.371094 0 9.585937-8.144531 17.386718-18.15625 17.386718-2.121094 0-34.496094-.011718-80.402344-.03125h-.003906c-4.140625 0-7.5 3.355469-7.5 7.5 0 4.140625 3.355469 7.5 7.496094 7.5 45.910156.019532 78.289062.03125 80.410156.03125 18.28125 0 33.15625-14.527344 33.15625-32.386718 0-15.371094-10.789062-28.183594-25.527344-31.527344-4.652343-25.59375-27.667968-44.839844-54.960937-44.839844-21.449219 0-41.078125 12.191406-50.296875 30.78125-8.472656 1.125-16.269531 4.84375-22.335938 10.527344-7.085937-9.398438-18.5-15.328125-30.90625-15.328125-15.671874 0-29.34375 9.230469-35.230468 22.675781-2.332032-.832031-4.773438-1.375-7.269532-1.625-11.847656-17.5-17.128906-34.660156-15.761718-51.160156 9.359375-1.101563 18.007812-2.601563 25.589844-4.464844 21.480468-5.28125 31.921874-12.753906 31.921874-22.839844 0-9.925781-10.066406-17.339844-30.683593-22.546875 3.65625-3.492187 7.6875-6.9375 12.078125-10.328125 47.652344-1.253906 95.597656-12.308594 95.597656-34.953125 0-4.410156-1.761719-8.46875-5.226562-12.164062 4.671874-.726563 9.160156-1.511719 13.402343-2.367188 30.867188-6.222656 45.246094-14.625 45.246094-26.441406 0-10.964844-12.886719-16.507813-17.121094-18.332031-.128906-.054688-.253906-.105469-.382812-.152344l-3.820313-1.398438c4.324219-5.007812 8.425782-10.121093 12.308594-15.335937 6.65625 4.980469 14.652344 7.644531 22.96875 7.644531 1.816406 0 3.644531-.125 5.480469-.382812 3.316406-.464844 5.921875-3.070313 6.386719-6.390625 1.695312-12.132813-2.296876-24.054688-10.953126-32.710938-.78125-.777343-1.59375-1.507812-2.425781-2.210937 8.046875-15.382813 13.839844-30.445313 17.976563-44.625 26.84375-6.527344 39.917968-15.371094 39.917968-26.992188zm-307.964843-43.5c.652343-5.125 2.980469-9.910156 6.75-13.683594 3.773437-3.773437 8.5625-6.097656 13.6875-6.75-.652344 5.125-2.980469 9.910157-6.75 13.683594-3.773438 3.773438-8.5625 6.097656-13.6875 6.75zm-35.019531 88.316406c.203124-.46875 1.753906-3.304687 10.507812-7.183593 2.457031 5.453125 4.683594 11.082031 6.5625 16.914062-12.328125-4.351562-16.574219-8.183593-17.070312-9.730469zm109.953124 111.375c4.765626-4.765624 10.902344-7.574218 17.433594-8.097656-.523437 6.53125-3.332031 12.667969-8.097656 17.433594-4.769531 4.765625-10.902344 7.574219-17.433594 8.097656.523438-6.527344 3.332032-12.664062 8.097656-17.433594zm-104.820312-15.265624c.898438-.945313 3.410156-2.980469 9.847656-5.472657-1.121094 3.054688-2.367187 6.15625-3.75 9.308594-3.171875-1.453125-5.167968-2.777344-6.097656-3.835937zm.679688 44.359374c5.007812-7.492187 9.339843-14.769531 13.070312-21.859374 1.355469.390624 2.691406.757812 3.984375 1.097656 16.621094 4.378906 38.625 7.585937 63.949219 9.351562-.121094 2.648438-.007813 5.335938.367187 8.03125.464844 3.316406 3.074219 5.925782 6.390625 6.390625 2.035156.285157 4.066406.425781 6.082032.425781 11.308593 0 22.078124-4.429687 30.238281-12.585937.246093-.246094.472656-.503906.710937-.757813l.613282.003907c10.972656 0 21.746093-.269531 32.160156-.777344-5.429688 3.296875-11.011719 6.507813-16.746094 9.632813-10.414062 5.671874-19.78125 11.566406-28.109375 17.667968-1.355469.015625-2.714844.027344-4.078125.027344-15.355469 0-30.589844-1.058594-44.058594-3.0625-4.09375-.613281-7.914062 2.21875-8.523437 6.3125-.609375 4.097656 2.21875 7.914062 6.316406 8.523438 10.167969 1.511718 21.273437 2.503906 32.667969 2.949218-15.09375 14.519532-24.777344 30.066406-28.953125 46.507813-8.53125.667969-17.511719 1.019531-26.660157 1.019531-20.960937 0-41.066406-1.832031-56.792968-5.160156-6.164063-22.46875-.332032-47.265625 17.371094-73.738282zm-34.667969 60.09375c.152343 3.019532.464843 6.019532.945312 8.996094-4.890625-1.914062-7.425781-3.632812-8.460937-4.683594.945312-.945312 3.183594-2.519531 7.515625-4.3125zm113.316406 85.542969c-3.53125 1.660157-6.730469 3.972657-9.371094 6.832031-46.644531-20.644531-69.144531-43.375-79.757812-62.207031 14.785156 2.363281 31.96875 3.636719 49.90625 3.636719 8.351562 0 16.535156-.28125 24.394531-.8125-.777344 17.203125 4.242188 35.042969 14.828125 52.550781zm18.589844-72.113281c-4.625 1.011719-9.65625 1.882812-14.984375 2.621094 2.578125-7.339844 6.546875-14.519532 11.914062-21.511719 17.679688 3.511719 24.917969 7.808594 26.871094 9.769531-1.804688 1.839844-8.160156 5.707032-23.800781 9.121094zm78.140625-64.667969c-9.296875 2.636719-20.246094 4.640625-32.199219 5.960938 1.578125-.898438 3.179687-1.796875 4.816406-2.691407 13.746094-7.488281 26.660157-15.46875 38.722657-23.917968 9.605468 4.082031 11.699218 7.578125 11.699218 8.367187 0 1.140625-4.097656 6.910157-23.039062 12.28125zm68.589844-57.730469c4.71875 2.050782 6.714843 3.675782 7.507812 4.496094-2.253906 2.410156-11.75 7.882813-37.3125 12.574219-.625.113281-1.269531.21875-1.898438.332031 7.90625-6.710937 15.339844-13.664062 22.296876-20.855468zm20.195312-45.042968c-3.773438-3.773438-6.097656-8.558594-6.75-13.683594 5.125.652344 9.914062 2.976562 13.683594 6.75 3.773437 3.769531 6.097656 8.558594 6.75 13.683594-5.125-.652344-9.910156-2.976563-13.683594-6.75zm57.953125-91.351563c-.769531 1.628907-5.867187 5.902344-20.632813 10.304688 1.484376-6.847657 2.597657-13.402344 3.417969-19.585938 13.925781 4.570313 16.769531 8.492188 17.214844 9.28125zm0 0"/><path d="m62.117188 273.261719c8.941406-1.558594 16.621093-.230469 20.867187.871093 5.011719 33.015626 20.179687 53.171876 20.875 54.078126 1.476563 1.925781 3.699219 2.9375 5.949219 2.9375 1.585937 0 3.183594-.503907 4.542968-1.539063 3.289063-2.503906 3.925782-7.207031 1.429688-10.5-.148438-.195313-13.660156-18.351563-18.035156-47.667969 3.6875-2.484375 10.347656-6.1875 19.089844-7.710937 4.082031-.710938 6.8125-4.597657 6.101562-8.675781-.710938-4.082032-4.597656-6.820313-8.675781-6.105469-3.242188.566406-6.261719 1.359375-9.042969 2.28125l2.738281-4.398438c2.191407-3.515625 1.113281-8.140625-2.402343-10.332031-3.515626-2.1875-8.140626-1.109375-10.332032 2.402344l-4.824218 7.75c-1.726563-3.4375-3.914063-7.035156-6.679688-10.402344-2.628906-3.199219-7.355469-3.664062-10.558594-1.035156-3.199218 2.628906-3.664062 7.355468-1.035156 10.554687 3.285156 4 5.507812 8.570313 6.957031 12.355469-5.410156-.71875-12.136719-.933594-19.542969.355469-4.078124.710937-6.8125 4.597656-6.101562 8.675781.714844 4.082031 4.597656 6.816406 8.679688 6.105469zm0 0"/><path d="m293.300781 409.175781c-3.832031 1.558594-5.679687 5.921875-4.128906 9.757813 1.179687 2.917968 3.988281 4.691406 6.957031 4.691406.933594 0 1.882813-.175781 2.804688-.546875 1.0625-.429687 24.371094-10.070313 45.472656-35.949219 4.230469 1.210938 11.511719 3.972656 18.414062 9.855469 1.414063 1.203125 3.140626 1.792969 4.859376 1.792969 2.121093 0 4.230468-.894532 5.710937-2.636719 2.6875-3.152344 2.3125-7.886719-.839844-10.574219-5.71875-4.871094-11.617187-8.109375-16.640625-10.242187 3.171875-2.523438 7.402344-5.324219 12.265625-7.101563 3.894531-1.417968 5.894531-5.722656 4.476563-9.613281-1.417969-3.894531-5.726563-5.894531-9.617188-4.476563-4.089844 1.492188-7.808594 3.476563-11.042968 5.558594l-.214844-9.125c-.09375-4.082031-3.433594-7.324218-7.492188-7.324218-.0625 0-.121094 0-.179687.003906-4.140625.097656-7.421875 3.53125-7.324219 7.671875l.125 5.183593c-1.929688-2.207031-4.125-4.425781-6.628906-6.5625-3.152344-2.6875-7.886719-2.308593-10.574219.84375-2.6875 3.152344-2.308594 7.886719.84375 10.570313 6.75 5.753906 10.605469 12.332031 12.519531 16.34375-18.625 22.964844-39.433594 31.742187-39.765625 31.878906zm0 0"/><path d="m408.34375 294.300781c0 4.144531 3.359375 7.5 7.5 7.5h.097656c4.140625 0 7.449219-3.355469 7.449219-7.5 0-4.140625-3.402344-7.5-7.546875-7.5-4.140625 0-7.5 3.359375-7.5 7.5zm0 0"/><path d="m436.796875 291.128906c-.023437 0-.050781 0-.078125 0-4.140625.042969-7.464844 3.433594-7.421875 7.574219.042969 4.117187 3.390625 7.425781 7.496094 7.425781h.078125.097656c4.140625-.042968 7.417969-3.433594 7.375-7.574218-.042969-4.117188-3.4375-7.425782-7.546875-7.425782zm0 0"/><path d="m116.339844 187.300781c0 4.140625 3.359375 7.5 7.5 7.5h.097656c4.140625 0 7.453125-3.359375 7.453125-7.5 0-4.144531-3.40625-7.5-7.550781-7.5-4.140625 0-7.5 3.355469-7.5 7.5zm0 0"/><path d="m123.792969 116.707031c-4.140625 0-7.5 3.355469-7.5 7.5 0 4.140625 3.359375 7.5 7.5 7.5h.097656c4.140625 0 7.449219-3.359375 7.449219-7.5 0-4.144531-3.40625-7.5-7.546875-7.5zm0 0"/><path d="m90.441406 153.492188h.09375c4.144532 0 7.453125-3.355469 7.453125-7.5 0-4.140626-3.40625-7.5-7.546875-7.5-4.144531 0-7.5 3.359374-7.5 7.5 0 4.144531 3.355469 7.5 7.5 7.5zm0 0"/><path d="m88.695312 380.441406c-4.140624.042969-7.464843 3.4375-7.421874 7.578125.042968 4.113281 3.390624 7.421875 7.496093 7.421875h.078125.097656c4.140626-.042968 7.417969-3.433594 7.375-7.574218-.042968-4.117188-3.441406-7.425782-7.546874-7.425782-.027344 0-.050782 0-.078126 0zm0 0"/><path d="m349.09375 134.765625h.097656c4.140625-.042969 7.417969-3.433594 7.375-7.574219-.042968-4.117187-3.4375-7.425781-7.546875-7.425781-.023437 0-.050781 0-.074219 0-4.144531.042969-7.46875 3.433594-7.425781 7.578125.042969 4.117188 3.390625 7.421875 7.496094 7.421875zm0 0"/><path d="m214.242188 226.410156c-4.144532.042969-7.464844 3.4375-7.421876 7.578125.039063 4.113281 3.390626 7.421875 7.496094 7.421875h.078125.097657c4.140624-.042968 7.414062-3.433594 7.375-7.574218-.042969-4.117188-3.441407-7.425782-7.546876-7.425782-.027343 0-.054687 0-.078124 0zm0 0"/><path d="m223.390625 251.816406c0 4.144532 3.359375 7.5 7.5 7.5h.097656c4.144531 0 7.453125-3.355468 7.453125-7.5 0-4.144531-3.40625-7.5-7.546875-7.5-4.144531 0-7.503906 3.359375-7.503906 7.5zm0 0"/><path d="m209.890625 375.351562h.097656c4.144531 0 7.453125-3.355468 7.453125-7.5 0-4.140624-3.40625-7.5-7.546875-7.5-4.144531 0-7.5 3.359376-7.5 7.5 0 4.144532 3.355469 7.5 7.496094 7.5zm0 0"/><path d="m252.136719 167.066406c10.761719 0 20.652343-4.929687 27.140625-13.519531 2.015625-2.675781 2.015625-6.363281 0-9.039063-6.488282-8.59375-16.378906-13.519531-27.136719-13.519531-10.761719 0-20.652344 4.929688-27.136719 13.519531-2.019531 2.675782-2.019531 6.363282 0 9.039063 6.484375 8.59375 16.375 13.519531 27.132813 13.519531zm0-21.078125c3.75 0 7.308593 1.070313 10.335937 3.039063-3.027344 1.96875-6.585937 3.039062-10.335937 3.039062-3.746094 0-7.304688-1.070312-10.332031-3.039062 3.027343-1.96875 6.585937-3.039063 10.332031-3.039063zm0 0"/><path d="m34.585938 377.765625c1.832031.257813 3.660156.382813 5.472656.382813 10.1875 0 19.890625-3.988282 27.238281-11.335938 8.65625-8.65625 12.648437-20.578125 10.953125-32.710938-.464844-3.316406-3.074219-5.925781-6.390625-6.390624-12.132813-1.695313-24.054687 2.296874-32.710937 10.953124s-12.648438 20.578126-10.953126 32.710938c.464844 3.320312 3.070313 5.925781 6.390626 6.390625zm15.167968-28.496094c3.773438-3.769531 8.558594-6.097656 13.683594-6.75-.652344 5.125-2.976562 9.914063-6.75 13.6875-3.769531 3.769531-8.558594 6.097657-13.683594 6.746094.652344-5.125 2.976563-9.910156 6.75-13.683594zm0 0"/></svg>